# xmcd
#
# Track frame offsets:
#	150
#	14026
#	30751
#	46200
#	59400
#	75151
#	89097
#	102786
#	116507
#	132562
#	151162
#	161813
#	177787
#	194662
#	209061
#
# Disc length: 3081 seconds
#
# Revision: 0
# Processed by: cddbd v1.5.2PL0 Copyright (c) Steve Scherf et al.
# Submitted via: EZCDAudioConverter 3.1.7.1
#
DISCID=c80c070f
DTITLE=Die Campbells - Homegrown Country
DYEAR=1900
DGENRE=
TTITLE0=Honey I'm good
TTITLE1=Wagon Wheel
TTITLE2=Homegrown
TTITLE3=Anything you wanna do
TTITLE4=Your man
TTITLE5=Burning up
TTITLE6=Compass
TTITLE7=Tequila makes her clothes fall off
TTITLE8=Something I need
TTITLE9=Felt good on my Lips
TTITLE10=Ho Hey
TTITLE11=Chicken Fired
TTITLE12=Someone Else Calling you baby
TTITLE13=Someones Gotto Go
TTITLE14=Achey Melody
EXTD=
EXTT0=
EXTT1=
EXTT2=
EXTT3=
EXTT4=
EXTT5=
EXTT6=
EXTT7=
EXTT8=
EXTT9=
EXTT10=
EXTT11=
EXTT12=
EXTT13=
EXTT14=
PLAYORDER=
